# xmcd
#
# Track frame offsets:
#	150
#	12880
#	36187
#	59657
#	85145
#	101325
#	131040
#	154682
#	172740
#	201762
#
# Disc length: 2889 seconds
#
# Revision: 1
# Processed by: cddbd v1.5.1PL0 Copyright (c) Steve Scherf et al.
# Submitted via: CDex 1.50Beta5
#
DISCID=780b470a
DTITLE=COIL - LOVE
DYEAR=1900
DGENRE=
TTITLE0=ねじ式
TTITLE1=カラッポの世界
TTITLE2=Loveless
TTITLE3=最後のビール
TTITLE4=悲しい石鹸
TTITLE5=ミルキー
TTITLE6=愛のうた
TTITLE7=ダンス天国
TTITLE8=HAPPY END
TTITLE9=One
EXTD=
EXTT0=
EXTT1=
EXTT2=
EXTT3=
EXTT4=
EXTT5=
EXTT6=
EXTT7=
EXTT8=
EXTT9=
PLAYORDER=
